<?xml version="1.0" standalone="no"?>
<!DOCTYPE svg PUBLIC "-//W3C//DTD SVG 20010904//EN"
 "http://www.w3.org/TR/2001/REC-SVG-20010904/DTD/svg10.dtd">
<svg version="1.0" xmlns="http://www.w3.org/2000/svg"
 width="225.000000pt" height="225.000000pt" viewBox="0 0 225.000000 225.000000"
 preserveAspectRatio="xMidYMid meet">
<metadata>
Created by potrace 1.16, written by Peter Selinger 2001-2019
</metadata>
<g transform="translate(0.000000,225.000000) scale(0.100000,-0.100000)"
fill="#000000" stroke="none">
<path d="M1005 2106 c-33 -8 -81 -23 -108 -35 -151 -66 -280 -216 -322 -377
-21 -81 -19 -204 4 -284 31 -108 492 -1254 509 -1267 18 -15 51 -17 70 -4 16
10 495 1189 519 1276 61 228 -42 480 -251 617 -113 73 -290 104 -421 74z m114
-114 c114 -55 217 -180 256 -309 21 -70 19 -72 -13 -12 -101 194 -379 192
-476 -3 -87 -174 45 -388 239 -388 89 0 193 62 236 139 14 26 18 29 13 11 -6
-24 -353 -902 -359 -908 -4 -4 -335 830 -357 901 -25 81 -24 200 3 279 49 145
172 269 312 314 50 15 72 12 146 -24z m62 -264 c50 -17 83 -45 109 -90 32 -57
26 -150 -14 -203 -109 -143 -336 -65 -336 115 0 131 120 220 241 178z"/>
</g>
</svg>
